<?xml version="1.0" standalone="no"?>
<!DOCTYPE svg PUBLIC "-//W3C//DTD SVG 20010904//EN"
 "http://www.w3.org/TR/2001/REC-SVG-20010904/DTD/svg10.dtd">
<svg version="1.0" xmlns="http://www.w3.org/2000/svg"
 width="500.000000pt" height="500.000000pt" viewBox="0 0 500.000000 500.000000"
 preserveAspectRatio="xMidYMid meet">

<g transform="translate(0.000000,500.000000) scale(0.100000,-0.100000)"
fill="#000000" stroke="none">
<path d="M760 2500 l0 -480 1740 0 1740 0 0 480 0 480 -1740 0 -1740 0 0 -480z
m3460 0 l0 -450 -1720 0 -1720 0 0 450 0 450 1720 0 1720 0 0 -450z"/>
<path d="M850 2500 l0 -390 820 0 820 0 0 390 0 390 -820 0 -820 0 0 -390z
m510 130 c0 -17 -7 -20 -45 -20 l-45 0 0 -115 c0 -108 -1 -115 -20 -115 -19 0
-20 7 -20 115 l0 115 -45 0 c-38 0 -45 3 -45 20 0 19 7 20 110 20 103 0 110
-1 110 -20z m232 -98 c67 -164 63 -152 39 -152 -15 0 -25 9 -32 30 -11 29 -13
30 -71 30 -57 0 -60 -1 -71 -30 -8 -21 -18 -30 -34 -30 l-23 0 19 48 c84 212
89 222 109 222 12 0 29 -31 64 -118z m283 93 c31 -30 33 -65 5 -65 -11 0 -20
7 -20 15 0 33 -77 48 -101 19 -20 -24 0 -45 61 -65 98 -32 123 -106 49 -144
-54 -29 -130 -11 -154 36 -20 37 -19 39 10 39 15 0 25 -6 25 -15 0 -33 71 -46
101 -19 28 25 8 50 -54 68 -63 18 -87 41 -87 84 0 68 113 100 165 47z m155
-35 c0 -57 1 -60 24 -60 34 0 64 28 79 75 10 28 20 41 35 43 29 4 28 -11 -8
-83 l-29 -59 36 -63 35 -63 -26 0 c-20 0 -31 11 -56 58 -28 54 -33 58 -60 54
-29 -4 -30 -6 -30 -58 0 -47 -2 -54 -20 -54 -19 0 -20 7 -20 135 0 128 1 135
20 135 18 0 20 -7 20 -60z"/>
<path d="M1504 2528 l-22 -53 40 -3 c22 -2 42 -1 45 2 3 2 -6 28 -19 56 l-23
51 -21 -53z"/>
<path d="M2766 2619 c-29 -22 -35 -63 -13 -92 6 -10 35 -25 62 -35 37 -13 50
-23 50 -37 0 -25 -37 -32 -55 -10 -16 19 -70 20 -70 1 0 -34 36 -59 93 -64 50
-4 58 -2 81 21 51 52 22 118 -60 133 -36 7 -59 27 -49 44 10 15 55 12 61 -5 4
-9 19 -15 39 -15 28 0 32 3 28 20 -15 57 -114 80 -167 39z"/>
<path d="M2990 2510 l0 -130 35 0 35 0 0 50 0 50 45 0 45 0 0 -50 c0 -49 1
-50 30 -50 l30 0 0 130 0 130 -29 0 c-28 0 -30 -2 -33 -47 l-3 -48 -42 -3 -43
-3 0 50 0 51 -35 0 -35 0 0 -130z"/>
<path d="M3303 2513 l-50 -128 31 -3 c22 -3 34 2 45 17 19 30 106 31 114 1 4
-15 14 -20 41 -20 20 0 36 1 36 3 0 1 -22 58 -49 127 -49 125 -49 125 -84 128
l-34 3 -50 -128z m102 1 c19 -47 21 -44 -20 -44 -23 0 -33 4 -30 13 18 50 25
67 30 67 2 0 12 -16 20 -36z"/>
<path d="M3560 2510 l0 -130 35 0 c34 0 35 1 35 40 0 29 4 40 15 40 8 0 24
-18 35 -40 19 -36 24 -40 60 -40 l39 0 -24 42 c-23 41 -24 42 -4 66 22 28 25
88 5 114 -19 26 -61 38 -132 38 l-64 0 0 -130z m139 52 c14 -27 -5 -52 -39
-52 -28 0 -30 3 -30 35 0 32 2 35 30 35 18 0 33 -7 39 -18z"/>
<path d="M3830 2510 l0 -130 85 0 85 0 0 30 c0 29 -1 30 -50 30 -47 0 -50 2
-50 25 0 23 4 25 45 25 41 0 45 2 45 25 0 23 -4 25 -45 25 -41 0 -45 2 -45 25
0 23 3 25 50 25 47 0 50 2 50 25 0 25 -1 25 -85 25 l-85 0 0 -130z"/>
</g>
</svg>
